<svg width="938" height="938" viewBox="0 -120 938 1138" fill="none" xmlns="http://www.w3.org/2000/svg">
<path fill-rule="evenodd" clip-rule="evenodd" d="M591.659 596.821C440.004 583.734 327.677 450.193 340.76 298.538C355.938 122.644 529.589 7.58114 696.509 58.7779C640.523 27.6917 577.24 7.62625 509.315 1.76324C251.277 -20.4998 24.0263 170.646 1.76324 428.684C-20.4998 686.722 170.646 913.969 428.684 936.236C686.722 958.499 913.969 767.353 936.236 509.315C944.604 412.358 922.837 319.743 878.713 240.72C888.955 273.774 893.1 309.321 889.943 345.922C876.856 497.577 743.314 609.904 591.659 596.821Z" fill="url(#paint0_linear_96_27)" fill-opacity="0.17"/>
<mask id="mask0_96_27" style="mask-type:luminance" maskUnits="userSpaceOnUse" x="0" y="0" width="939" height="938">
<path d="M591.659 596.821C440.004 583.734 327.677 450.193 340.76 298.538C355.938 122.644 529.589 7.58114 696.509 58.7779C640.523 27.6917 577.24 7.62625 509.315 1.76324C251.277 -20.4998 24.0263 170.646 1.76324 428.684C-20.4998 686.722 170.646 913.969 428.684 936.236C686.722 958.499 913.969 767.353 936.236 509.315C944.604 412.358 922.837 319.743 878.713 240.72C888.955 273.774 893.1 309.321 889.943 345.922C876.856 497.577 743.314 609.904 591.659 596.821Z" fill="white"/>
</mask>
<g mask="url(#mask0_96_27)">
<path d="M538.257 765.041C743.73 765.041 910.299 598.472 910.299 392.998C910.299 187.525 743.73 20.9558 538.257 20.9558C332.783 20.9558 166.214 187.525 166.214 392.998C166.214 598.472 332.783 765.041 538.257 765.041Z" fill="url(#paint1_linear_96_27)" fill-opacity="0.17"/>
</g>
<defs>
<linearGradient id="paint0_linear_96_27" x1="617.051" y1="306.98" x2="-656.369" y2="1074.44" gradientUnits="userSpaceOnUse">
<stop stop-color="#333333"/>
<stop offset="0.768627" stop-color="#333333"/>
<stop offset="1" stop-color="#333333"/>
</linearGradient>
<linearGradient id="paint1_linear_96_27" x1="93.3326" y1="634.607" x2="825.04" y2="117.281" gradientUnits="userSpaceOnUse">
<stop stop-color="#4D4D4D"/>
<stop offset="0.141176" stop-color="#4D4D4D"/>
<stop offset="1" stop-color="#4D4D4D"/>
</linearGradient>
</defs>
</svg>
